<svg xmlns="http://www.w3.org/2000/svg" style="display: none;">
  <defs>
    <!-- Navigation Icons -->
    <symbol id="icon-menu" viewBox="0 0 24 24">
      <path fill="none" stroke="currentColor" stroke-width="2" stroke-linecap="round" stroke-linejoin="round" d="M3 12h18M3 6h18M3 18h18"/>
    </symbol>
    
    <symbol id="icon-close" viewBox="0 0 24 24">
      <path fill="none" stroke="currentColor" stroke-width="2" stroke-linecap="round" stroke-linejoin="round" d="M18 6L6 18M6 6l12 12"/>
    </symbol>
    
    <symbol id="icon-arrow-right" viewBox="0 0 24 24">
      <path fill="none" stroke="currentColor" stroke-width="2" stroke-linecap="round" stroke-linejoin="round" d="M5 12h14m-7-7 7 7-7 7"/>
    </symbol>
    
    <symbol id="icon-arrow-down" viewBox="0 0 24 24">
      <path fill="none" stroke="currentColor" stroke-width="2" stroke-linecap="round" stroke-linejoin="round" d="M12 5v14m7-7-7 7-7-7"/>
    </symbol>
    
    <!-- Technology Icons -->
    <symbol id="icon-react" viewBox="0 0 24 24">
      <g fill="currentColor">
        <circle cx="12" cy="12" r="2"/>
        <path d="M12 2c1.658 0 3 1.342 3 3s-1.342 3-3 3-3-1.342-3-3 1.342-3 3-3zm0 14c1.658 0 3 1.342 3 3s-1.342 3-3 3-3-1.342-3-3 1.342-3 3-3z"/>
        <ellipse cx="12" cy="12" rx="10" ry="4" fill="none" stroke="currentColor" stroke-width="1"/>
        <ellipse cx="12" cy="12" rx="10" ry="4" fill="none" stroke="currentColor" stroke-width="1" transform="rotate(60 12 12)"/>
        <ellipse cx="12" cy="12" rx="10" ry="4" fill="none" stroke="currentColor" stroke-width="1" transform="rotate(120 12 12)"/>
      </g>
    </symbol>
    
    <symbol id="icon-nodejs" viewBox="0 0 24 24">
      <path fill="currentColor" d="M12 2L1.5 7v10L12 22l10.5-5V7L12 2zm0 2.5L20 9v6l-8 4.5L4 15V9l8-4.5z"/>
      <path fill="currentColor" d="M12 6.5L8 8.5v7l4 2.25 4-2.25v-7L12 6.5z"/>
    </symbol>
    
    <symbol id="icon-javascript" viewBox="0 0 24 24">
      <rect x="2" y="2" width="20" height="20" rx="2" fill="currentColor"/>
      <path d="M7 16.5c0 1.381.559 2.5 1.5 2.5s1.5-1.119 1.5-2.5v-7h-1v7c0 .881-.336 1.5-1 1.5s-1-.619-1-1.5H7z" fill="white"/>
      <path d="M13 15c0 1.5 1 2.5 2.5 2.5s2.5-1 2.5-2.5c0-.5-.169-1.031-.5-1.5L16 11h1l1.5 4c.331.469.5 1 .5 1.5 0 2-1.5 3.5-3.5 3.5S12 17.5 12 15h1z" fill="white"/>
    </symbol>
    
    <symbol id="icon-typescript" viewBox="0 0 24 24">
      <rect x="2" y="2" width="20" height="20" rx="2" fill="currentColor"/>
      <path d="M8 8h8v2h-3v8h-2v-8H8V8z" fill="white"/>
      <path d="M14 12h2v1.5c0 .828.672 1.5 1.5 1.5s1.5-.672 1.5-1.5-.672-1.5-1.5-1.5H16v-1h1.5c1.381 0 2.5 1.119 2.5 2.5s-1.119 2.5-2.5 2.5-2.5-1.119-2.5-2.5V12z" fill="white"/>
    </symbol>
    
    <symbol id="icon-python" viewBox="0 0 24 24">
      <path fill="currentColor" d="M14.25 2.1c-1.2 0-2.25 0-3.5.3C8.75 2.7 7 4.45 7 6.45v1.8h7v.7H7c-2 0-3.75 1.2-4.3 3.5-.65 2.6-.65 4.2 0 6.9.5 2 1.7 3.5 3.7 3.5h2.4v-3.2c0-2.3 2-4.3 4.3-4.3h7c1.9 0 3.5-1.6 3.5-3.5v-6.2c0-1.9-1.6-3.5-3.5-3.5h-1.35zM12 3.9c.7 0 1.25.55 1.25 1.25S12.7 6.4 12 6.4s-1.25-.55-1.25-1.25S11.3 3.9 12 3.9z"/>
      <path fill="currentColor" d="M9.75 21.9c1.2 0 2.25 0 3.5-.3 1.95-.35 3.7-2.1 3.7-4.1v-1.8h-7v-.7h7c2 0 3.75-1.2 4.3-3.5.65-2.6.65-4.2 0-6.9-.5-2-1.7-3.5-3.7-3.5h-2.4v3.2c0 2.3-2 4.3-4.3 4.3h-7c-1.9 0-3.5 1.6-3.5 3.5v6.2c0 1.9 1.6 3.5 3.5 3.5h1.35zM12 20.1c-.7 0-1.25-.55-1.25-1.25s.55-1.25 1.25-1.25 1.25.55 1.25 1.25-.55 1.25-1.25 1.25z"/>
    </symbol>
    
    <symbol id="icon-mongodb" viewBox="0 0 24 24">
      <path fill="currentColor" d="M12 2C6.48 2 2 6.48 2 12s4.48 10 10 10 10-4.48 10-10S17.52 2 12 2zm0 18c-4.41 0-8-3.59-8-8s3.59-8 8-8 8 3.59 8 8-3.59 8-8 8z"/>
      <path fill="currentColor" d="M12 7c-2.76 0-5 2.24-5 5s2.24 5 5 5 5-2.24 5-5-2.24-5-5-5zm0 8c-1.66 0-3-1.34-3-3s1.34-3 3-3 3 1.34 3 3-1.34 3-3 3z"/>
      <circle cx="12" cy="12" r="1" fill="currentColor"/>
    </symbol>
    
    <!-- Social Icons -->
    <symbol id="icon-github" viewBox="0 0 24 24">
      <path fill="currentColor" d="M12 2C6.477 2 2 6.477 2 12c0 4.42 2.865 8.166 6.839 9.489.5.092.682-.217.682-.482 0-.237-.008-.866-.013-1.7-2.782.604-3.369-1.341-3.369-1.341-.454-1.155-1.11-1.462-1.11-1.462-.908-.62.069-.608.069-.608 1.003.07 1.531 1.03 1.531 1.03.892 1.529 2.341 1.087 2.91.831.092-.646.35-1.086.636-1.336-2.22-.253-4.555-1.11-4.555-4.943 0-1.091.39-1.984 1.029-2.683-.103-.253-.446-1.27.098-2.647 0 0 .84-.269 2.75 1.025A9.564 9.564 0 0112 6.844c.85.004 1.705.115 2.504.337 1.909-1.294 2.747-1.025 2.747-1.025.546 1.377.203 2.394.1 2.647.64.699 1.028 1.592 1.028 2.683 0 3.842-2.339 4.687-4.566 4.935.359.309.678.919.678 1.852 0 1.336-.012 2.415-.012 2.743 0 .267.18.578.688.48C19.138 20.161 22 16.416 22 12c0-5.523-4.477-10-10-10z"/>
    </symbol>
    
    <symbol id="icon-linkedin" viewBox="0 0 24 24">
      <path fill="currentColor" d="M19 3a2 2 0 0 1 2 2v14a2 2 0 0 1-2 2H5a2 2 0 0 1-2-2V5a2 2 0 0 1 2-2h14m-.5 15.5v-5.3a3.26 3.26 0 0 0-3.26-3.26c-.85 0-1.84.52-2.32 1.3v-1.11h-2.79v8.37h2.79v-4.93c0-.77.62-1.4 1.39-1.4a1.4 1.4 0 0 1 1.4 1.4v4.93h2.79M6.88 8.56a1.68 1.68 0 0 0 1.68-1.68c0-.93-.75-1.69-1.68-1.69a1.69 1.69 0 0 0-1.69 1.69c0 .93.76 1.68 1.69 1.68m1.39 9.94v-8.37H5.5v8.37h2.77z"/>
    </symbol>
    
    <symbol id="icon-twitter" viewBox="0 0 24 24">
      <path fill="currentColor" d="M23 3a10.9 10.9 0 0 1-3.14 1.53 4.48 4.48 0 0 0-7.86 3v1A10.66 10.66 0 0 1 3 4s-4 9 5 13a11.64 11.64 0 0 1-7 2c9 5 20 0 20-11.5a4.5 4.5 0 0 0-.08-.83A7.72 7.72 0 0 0 23 3z"/>
    </symbol>
    
    <!-- Feature Icons -->
    <symbol id="icon-brain" viewBox="0 0 24 24">
      <path fill="none" stroke="currentColor" stroke-width="2" stroke-linecap="round" stroke-linejoin="round" d="M12 2a3 3 0 0 0-3 3 4 4 0 0 0-1 4v1a2 2 0 0 0 2 2h1v4a2 2 0 0 0 2 2h2a2 2 0 0 0 2-2v-4h1a2 2 0 0 0 2-2v-1a4 4 0 0 0-1-4 3 3 0 0 0-3-3z"/>
      <path fill="none" stroke="currentColor" stroke-width="2" stroke-linecap="round" stroke-linejoin="round" d="M14 14a2 2 0 0 0-2-2H9"/>
      <path fill="none" stroke="currentColor" stroke-width="2" stroke-linecap="round" stroke-linejoin="round" d="M15 7a3 3 0 0 1 3 3"/>
    </symbol>
    
    <symbol id="icon-code" viewBox="0 0 24 24">
      <path fill="none" stroke="currentColor" stroke-width="2" stroke-linecap="round" stroke-linejoin="round" d="M16 18l6-6-6-6M8 6l-6 6 6 6"/>
    </symbol>
    
    <symbol id="icon-database" viewBox="0 0 24 24">
      <ellipse cx="12" cy="5" rx="9" ry="3" fill="none" stroke="currentColor" stroke-width="2"/>
      <path fill="none" stroke="currentColor" stroke-width="2" d="M21 12c0 1.66-4 3-9 3s-9-1.34-9-3"/>
      <path fill="none" stroke="currentColor" stroke-width="2" d="M3 5v14c0 1.66 4 3 9 3s9-1.34 9-3V5"/>
    </symbol>
    
    <symbol id="icon-rocket" viewBox="0 0 24 24">
      <path fill="none" stroke="currentColor" stroke-width="2" stroke-linecap="round" stroke-linejoin="round" d="M4.5 16.5c-1.5 1.26-2 5-2 5s3.74-.5 5-2c.71-.84.7-2.13-.09-2.91a2.18 2.18 0 0 0-2.91-.09z"/>
      <path fill="none" stroke="currentColor" stroke-width="2" stroke-linecap="round" stroke-linejoin="round" d="M12 15l-3-3a22 22 0 0 1 2-3.95A12.88 12.88 0 0 1 22 2c0 2.72-.78 7.5-6 11a22.35 22.35 0 0 1-4 2z"/>
      <path fill="none" stroke="currentColor" stroke-width="2" stroke-linecap="round" stroke-linejoin="round" d="M9 12H4s.55-3.03 2-4c1.62-1.08 5 0 5 0"/>
      <path fill="none" stroke="currentColor" stroke-width="2" stroke-linecap="round" stroke-linejoin="round" d="M12 15v5s3.03-.55 4-2c1.08-1.62 0-5 0-5"/>
    </symbol>
    
    <symbol id="icon-shield" viewBox="0 0 24 24">
      <path fill="none" stroke="currentColor" stroke-width="2" stroke-linecap="round" stroke-linejoin="round" d="M12 22s8-4 8-10V5l-8-3-8 3v7c0 6 8 10 8 10z"/>
    </symbol>
    
    <symbol id="icon-zap" viewBox="0 0 24 24">
      <polygon fill="currentColor" points="13,2 3,14 12,14 11,22 21,10 12,10"/>
    </symbol>
    
    <symbol id="icon-target" viewBox="0 0 24 24">
      <circle cx="12" cy="12" r="10" fill="none" stroke="currentColor" stroke-width="2"/>
      <circle cx="12" cy="12" r="6" fill="none" stroke="currentColor" stroke-width="2"/>
      <circle cx="12" cy="12" r="2" fill="none" stroke="currentColor" stroke-width="2"/>
    </symbol>
    
    <symbol id="icon-star" viewBox="0 0 24 24">
      <polygon fill="currentColor" points="12,2 15.09,8.26 22,9.27 17,14.14 18.18,21.02 12,17.77 5.82,21.02 7,14.14 2,9.27 8.91,8.26"/>
    </symbol>
    
    <symbol id="icon-fire" viewBox="0 0 24 24">
      <path fill="currentColor" d="M13.5 1c-.5.5-1 2-1 3.5 0 1 .5 2 1.5 2s1.5-1 1.5-2c0-1.5-.5-3-1.5-3.5-.5-.5-1.5-.5-1.5 0zM8 7c0 3 2 5 5 5s5-2 5-5c0-1-1-2-2-2s-2 1-2 2c0 1-1 2-2 2s-2-1-2-2c0-1-1-2-2-2S8 6 8 7zm4 9c-3 0-5.5 2.5-5.5 5.5S9 27 12 27s5.5-2.5 5.5-5.5S15 16 12 16z"/>
    </symbol>
    
    <symbol id="icon-diamond" viewBox="0 0 24 24">
      <path fill="none" stroke="currentColor" stroke-width="2" stroke-linecap="round" stroke-linejoin="round" d="M6 3h12l4 6-10 12L2 9l4-6z"/>
      <path fill="none" stroke="currentColor" stroke-width="2" stroke-linecap="round" stroke-linejoin="round" d="M6 3l6 18 6-18"/>
      <path fill="none" stroke="currentColor" stroke-width="2" stroke-linecap="round" stroke-linejoin="round" d="M2 9h20"/>
    </symbol>
    
    <!-- Contact Icons -->
    <symbol id="icon-mail" viewBox="0 0 24 24">
      <path fill="none" stroke="currentColor" stroke-width="2" stroke-linecap="round" stroke-linejoin="round" d="M4 4h16c1.1 0 2 .9 2 2v12c0 1.1-.9 2-2 2H4c-1.1 0-2-.9-2-2V6c0-1.1.9-2 2-2z"/>
      <polyline fill="none" stroke="currentColor" stroke-width="2" stroke-linecap="round" stroke-linejoin="round" points="22,6 12,13 2,6"/>
    </symbol>
    
    <symbol id="icon-phone" viewBox="0 0 24 24">
      <path fill="currentColor" d="M17.707 12.293a.999.999 0 0 0-1.414 0l-1.594 1.594c-.739-.22-2.118-.72-2.992-1.594s-1.374-2.253-1.594-2.992l1.594-1.594a.999.999 0 0 0 0-1.414L8.293 2.879a.999.999 0 0 0-1.414 0L5.465 4.293c-.293.293-.766.766-.766 1.414 0 .53.196 1.06.586 1.586C6.343 9.817 8.183 17.207 16.793 18.265c.526.39 1.056.586 1.586.586.648 0 1.121-.473 1.414-.766l1.414-1.414a.999.999 0 0 0 0-1.414l-3.5-3.5z"/>
    </symbol>
    
    <symbol id="icon-location" viewBox="0 0 24 24">
      <path fill="none" stroke="currentColor" stroke-width="2" stroke-linecap="round" stroke-linejoin="round" d="M21 10c0 7-9 13-9 13s-9-6-9-13a9 9 0 0 1 18 0z"/>
      <circle cx="12" cy="10" r="3" fill="none" stroke="currentColor" stroke-width="2"/>
    </symbol>
    
    <!-- Utility Icons -->
    <symbol id="icon-check" viewBox="0 0 24 24">
      <polyline fill="none" stroke="currentColor" stroke-width="2" stroke-linecap="round" stroke-linejoin="round" points="20,6 9,17 4,12"/>
    </symbol>
    
    <symbol id="icon-x" viewBox="0 0 24 24">
      <line x1="18" y1="6" x2="6" y2="18" stroke="currentColor" stroke-width="2" stroke-linecap="round"/>
      <line x1="6" y1="6" x2="18" y2="18" stroke="currentColor" stroke-width="2" stroke-linecap="round"/>
    </symbol>
    
    <symbol id="icon-plus" viewBox="0 0 24 24">
      <line x1="12" y1="5" x2="12" y2="19" stroke="currentColor" stroke-width="2" stroke-linecap="round"/>
      <line x1="5" y1="12" x2="19" y2="12" stroke="currentColor" stroke-width="2" stroke-linecap="round"/>
    </symbol>
    
    <symbol id="icon-minus" viewBox="0 0 24 24">
      <line x1="5" y1="12" x2="19" y2="12" stroke="currentColor" stroke-width="2" stroke-linecap="round"/>
    </symbol>
    
    <symbol id="icon-search" viewBox="0 0 24 24">
      <circle cx="11" cy="11" r="8" fill="none" stroke="currentColor" stroke-width="2"/>
      <path fill="none" stroke="currentColor" stroke-width="2" stroke-linecap="round" stroke-linejoin="round" d="M21 21l-4.35-4.35"/>
    </symbol>
    
    <symbol id="icon-settings" viewBox="0 0 24 24">
      <circle cx="12" cy="12" r="3" fill="none" stroke="currentColor" stroke-width="2"/>
      <path fill="none" stroke="currentColor" stroke-width="2" stroke-linecap="round" stroke-linejoin="round" d="M12 1v6m0 6v6m11-7h-6m-6 0H1"/>
    </symbol>
    
    <!-- Loading Icons -->
    <symbol id="icon-loader" viewBox="0 0 24 24">
      <line x1="12" y1="2" x2="12" y2="6" stroke="currentColor" stroke-width="2" stroke-linecap="round"/>
      <line x1="12" y1="18" x2="12" y2="22" stroke="currentColor" stroke-width="2" stroke-linecap="round"/>
      <line x1="4.93" y1="4.93" x2="7.76" y2="7.76" stroke="currentColor" stroke-width="2" stroke-linecap="round"/>
      <line x1="16.24" y1="16.24" x2="19.07" y2="19.07" stroke="currentColor" stroke-width="2" stroke-linecap="round"/>
      <line x1="2" y1="12" x2="6" y2="12" stroke="currentColor" stroke-width="2" stroke-linecap="round"/>
      <line x1="18" y1="12" x2="22" y2="12" stroke="currentColor" stroke-width="2" stroke-linecap="round"/>
      <line x1="4.93" y1="19.07" x2="7.76" y2="16.24" stroke="currentColor" stroke-width="2" stroke-linecap="round"/>
      <line x1="16.24" y1="7.76" x2="19.07" y2="4.93" stroke="currentColor" stroke-width="2" stroke-linecap="round"/>
    </symbol>
    
    <!-- Charts and Analytics -->
    <symbol id="icon-chart-bar" viewBox="0 0 24 24">
      <rect x="18" y="20" width="4" height="4" rx="1" fill="currentColor" transform="rotate(180 20 22)"/>
      <rect x="10" y="20" width="4" height="8" rx="1" fill="currentColor" transform="rotate(180 12 24)"/>
      <rect x="2" y="20" width="4" height="12" rx="1" fill="currentColor" transform="rotate(180 4 26)"/>
    </symbol>
    
    <symbol id="icon-trending-up" viewBox="0 0 24 24">
      <polyline fill="none" stroke="currentColor" stroke-width="2" stroke-linecap="round" stroke-linejoin="round" points="23,6 13.5,15.5 8.5,10.5 1,18"/>
      <polyline fill="none" stroke="currentColor" stroke-width="2" stroke-linecap="round" stroke-linejoin="round" points="17,6 23,6 23,12"/>
    </symbol>
    
    <!-- Cloud and Server -->
    <symbol id="icon-cloud" viewBox="0 0 24 24">
      <path fill="currentColor" d="M18 10h-1.26A8 8 0 1 0 9 20h9a5 5 0 0 0 0-10z"/>
    </symbol>
    
    <symbol id="icon-server" viewBox="0 0 24 24">
      <rect x="2" y="3" width="20" height="4" rx="1" fill="none" stroke="currentColor" stroke-width="2"/>
      <rect x="2" y="9" width="20" height="4" rx="1" fill="none" stroke="currentColor" stroke-width="2"/>
      <rect x="2" y="15" width="20" height="4" rx="1" fill="none" stroke="currentColor" stroke-width="2"/>
      <line x1="6" y1="5" x2="6" y2="5" stroke="currentColor" stroke-width="2" stroke-linecap="round"/>
      <line x1="6" y1="11" x2="6" y2="11" stroke="currentColor" stroke-width="2" stroke-linecap="round"/>
      <line x1="6" y1="17" x2="6" y2="17" stroke="currentColor" stroke-width="2" stroke-linecap="round"/>
    </symbol>
    
    <!-- Devices -->
    <symbol id="icon-monitor" viewBox="0 0 24 24">
      <rect x="2" y="3" width="20" height="14" rx="2" ry="2" fill="none" stroke="currentColor" stroke-width="2"/>
      <line x1="8" y1="21" x2="16" y2="21" stroke="currentColor" stroke-width="2" stroke-linecap="round"/>
      <line x1="12" y1="17" x2="12" y2="21" stroke="currentColor" stroke-width="2" stroke-linecap="round"/>
    </symbol>
    
    <symbol id="icon-smartphone" viewBox="0 0 24 24">
      <rect x="5" y="2" width="14" height="20" rx="2" ry="2" fill="none" stroke="currentColor" stroke-width="2"/>
      <line x1="12" y1="18" x2="12" y2="18" stroke="currentColor" stroke-width="2" stroke-linecap="round"/>
    </symbol>
    
    <!-- Time and Calendar -->
    <symbol id="icon-clock" viewBox="0 0 24 24">
      <circle cx="12" cy="12" r="10" fill="none" stroke="currentColor" stroke-width="2"/>
      <polyline fill="none" stroke="currentColor" stroke-width="2" stroke-linecap="round" stroke-linejoin="round" points="12,6 12,12 16,14"/>
    </symbol>
    
    <symbol id="icon-calendar" viewBox="0 0 24 24">
      <rect x="3" y="4" width="18" height="18" rx="2" ry="2" fill="none" stroke="currentColor" stroke-width="2"/>
      <line x1="16" y1="2" x2="16" y2="6" stroke="currentColor" stroke-width="2" stroke-linecap="round"/>
      <line x1="8" y1="2" x2="8" y2="6" stroke="currentColor" stroke-width="2" stroke-linecap="round"/>
      <line x1="3" y1="10" x2="21" y2="10" stroke="currentColor" stroke-width="2" stroke-linecap="round"/>
    </symbol>
    
    <!-- Team and Users -->
    <symbol id="icon-users" viewBox="0 0 24 24">
      <path fill="none" stroke="currentColor" stroke-width="2" stroke-linecap="round" stroke-linejoin="round" d="M17 21v-2a4 4 0 0 0-4-4H5a4 4 0 0 0-4 4v2"/>
      <circle cx="9" cy="7" r="4" fill="none" stroke="currentColor" stroke-width="2"/>
      <path fill="none" stroke="currentColor" stroke-width="2" stroke-linecap="round" stroke-linejoin="round" d="M23 21v-2a4 4 0 0 0-3-3.87"/>
      <path fill="none" stroke="currentColor" stroke-width="2" stroke-linecap="round" stroke-linejoin="round" d="M16 3.13a4 4 0 0 1 0 7.75"/>
    </symbol>
    
    <symbol id="icon-user-check" viewBox="0 0 24 24">
      <path fill="none" stroke="currentColor" stroke-width="2" stroke-linecap="round" stroke-linejoin="round" d="M16 21v-2a4 4 0 0 0-4-4H5a4 4 0 0 0-4 4v2"/>
      <circle cx="8.5" cy="7" r="4" fill="none" stroke="currentColor" stroke-width="2"/>
      <polyline fill="none" stroke="currentColor" stroke-width="2" stroke-linecap="round" stroke-linejoin="round" points="17,11 19,13 23,9"/>
    </symbol>
  </defs>
</svg>
